<svg xmlns="http://www.w3.org/2000/svg" viewBox="0 0 1804.92 693.95"><defs><style>.cls-1{fill:#115c2b;}.cls-2{fill:#1d1d1b;}.cls-3{fill:#99c66c;}</style></defs><g id="DERECHOS_RESERVADOS" data-name="DERECHOS RESERVADOS"><path class="cls-1" d="M1785.7,319.1a19.71,19.71,0,0,1,9.46,2.49,17.62,17.62,0,0,1,7.18,7.11,19.26,19.26,0,0,1,0,19.19,17.91,17.91,0,0,1-7.11,7.12,19.3,19.3,0,0,1-19.14,0,18,18,0,0,1-7.12-7.12,19.2,19.2,0,0,1,0-19.19,17.61,17.61,0,0,1,7.2-7.11A19.64,19.64,0,0,1,1785.7,319.1Zm0,3.19a16.32,16.32,0,0,0-7.89,2.07,15,15,0,0,0-6,5.94,16,16,0,0,0,0,16,15,15,0,0,0,6,5.94,16,16,0,0,0,16,0,15.06,15.06,0,0,0,5.93-5.94,16,16,0,0,0,0-16,14.79,14.79,0,0,0-6-5.94A16.28,16.28,0,0,0,1785.7,322.29ZM1777.26,349v-20.7h7.11a17.14,17.14,0,0,1,5.28.58,5.1,5.1,0,0,1,2.6,2,5.32,5.32,0,0,1,1,3,5.51,5.51,0,0,1-1.62,3.95,6.37,6.37,0,0,1-4.29,1.88,5.47,5.47,0,0,1,1.75,1.1,23.58,23.58,0,0,1,3.06,4.1l2.52,4.06h-4.08l-1.83-3.27c-1.44-2.56-2.6-4.17-3.49-4.81a4.25,4.25,0,0,0-2.67-.72h-2V349Zm3.34-11.65h4.06q2.89,0,4-.87a3,3,0,0,0,.55-3.94,3.11,3.11,0,0,0-1.42-1.08,10.47,10.47,0,0,0-3.35-.35h-3.8Z"/></g><g id="TU_SUEÑO_TU_REALIDAD" data-name="TU SUEÑO, TU REALIDAD"><path class="cls-2" d="M817.47,600.88H804V596h32.75v4.86H823.25v39.38h-5.78Z"/><path class="cls-2" d="M872.22,631.6c0,3.28.07,6.17.27,8.66h-5.12l-.33-5.18h-.13a12,12,0,0,1-10.5,5.9c-5,0-11-2.75-11-13.91V608.5h5.78v17.58c0,6,1.84,10.11,7.09,10.11a8.14,8.14,0,0,0,8.14-8.2V608.5h5.77Z"/><path class="cls-2" d="M921.14,634.36a15.22,15.22,0,0,0,7.62,2.29c4.2,0,6.17-2.1,6.17-4.72s-1.64-4.27-5.91-5.85c-5.71-2-8.4-5.18-8.4-9,0-5.12,4.13-9.32,11-9.32a15.84,15.84,0,0,1,7.81,2l-1.45,4.2a12.31,12.31,0,0,0-6.49-1.83c-3.41,0-5.32,2-5.32,4.33,0,2.62,1.91,3.8,6,5.38,5.51,2.1,8.33,4.86,8.33,9.58,0,5.58-4.33,9.52-11.87,9.52a18.15,18.15,0,0,1-8.93-2.17Z"/><path class="cls-2" d="M987.64,631.6c0,3.28.07,6.17.26,8.66h-5.12l-.32-5.18h-.13a12,12,0,0,1-10.51,5.9c-5,0-11-2.75-11-13.91V608.5h5.78v17.58c0,6,1.84,10.11,7.09,10.11a8.11,8.11,0,0,0,8.13-8.2V608.5h5.78Z"/><path class="cls-2" d="M1013.58,625.43c.13,7.81,5.12,11,10.9,11a20.82,20.82,0,0,0,8.79-1.65l1,4.14a25.76,25.76,0,0,1-10.57,2c-9.78,0-15.62-6.43-15.62-16s5.64-17.13,14.9-17.13c10.37,0,13.12,9.13,13.12,15a23.29,23.29,0,0,1-.19,2.69Zm16.93-4.14c.07-3.67-1.5-9.38-8-9.38-5.85,0-8.41,5.38-8.86,9.38Z"/><path class="cls-2" d="M1056.32,617.09c0-3.28-.06-6-.26-8.59h5.12l.33,5.25h.13a11.68,11.68,0,0,1,10.5-6c4.4,0,11.22,2.63,11.22,13.52v19h-5.77V622c0-5.12-1.91-9.39-7.35-9.39a8.22,8.22,0,0,0-7.75,5.91,8.38,8.38,0,0,0-.39,2.69v19.1h-5.78Zm5.38-14c-.13-4.27,1.65-6.83,4.47-6.83a8.1,8.1,0,0,1,4.07,1.44,6.42,6.42,0,0,0,2.75,1.12c1,0,1.71-.59,1.84-2.82h3.09c.06,4.39-1.45,6.63-4.53,6.63a8.68,8.68,0,0,1-4-1.32,5.89,5.89,0,0,0-2.82-1.18c-1,0-1.57,1.12-1.71,3Z"/><path class="cls-2" d="M1134.57,624.12c0,11.74-8.14,16.86-15.82,16.86-8.6,0-15.22-6.3-15.22-16.34,0-10.63,7-16.87,15.75-16.87C1128.4,607.77,1134.57,614.4,1134.57,624.12Zm-25.2.32c0,7,4,12.21,9.65,12.21s9.64-5.18,9.64-12.34c0-5.38-2.69-12.2-9.51-12.2S1109.37,618.4,1109.37,624.44Z"/><path class="cls-2" d="M1151.26,648.34a94.91,94.91,0,0,0,3.93-15.69l6.44-.66c-1.51,5.58-4.4,12.87-6.24,16Z"/><path class="cls-2" d="M1215.59,599.37v9.13h8.27v4.39h-8.27V630c0,3.94,1.12,6.17,4.34,6.17a12.73,12.73,0,0,0,3.34-.39l.26,4.33a14.07,14.07,0,0,1-5.12.79,8,8,0,0,1-6.23-2.43c-1.64-1.71-2.23-4.53-2.23-8.27V612.89H1205V608.5H1210v-7.62Z"/><path class="cls-2" d="M1270,631.6c0,3.28.07,6.17.26,8.66h-5.12l-.32-5.18h-.13a12,12,0,0,1-10.51,5.9c-5,0-11-2.75-11-13.91V608.5H1249v17.58c0,6,1.84,10.11,7.09,10.11a8.14,8.14,0,0,0,8.14-8.2V608.5H1270Z"/><path class="cls-2" d="M1319.72,618.4c0-3.73-.07-6.95-.26-9.9h5l.2,6.23h.26c1.45-4.27,4.92-7,8.79-7a6.24,6.24,0,0,1,1.64.2v5.45a8.57,8.57,0,0,0-2-.2c-4.07,0-7,3.09-7.75,7.42a16.47,16.47,0,0,0-.26,2.69v16.93h-5.71Z"/><path class="cls-2" d="M1356.75,625.43c.13,7.81,5.12,11,10.89,11a20.91,20.91,0,0,0,8.8-1.65l1,4.14a25.72,25.72,0,0,1-10.57,2c-9.78,0-15.62-6.43-15.62-16s5.65-17.13,14.9-17.13c10.37,0,13.13,9.13,13.13,15a20.82,20.82,0,0,1-.2,2.69Zm16.93-4.14c.06-3.67-1.51-9.38-8-9.38-5.84,0-8.4,5.38-8.86,9.38Z"/><path class="cls-2" d="M1417.07,640.26l-.45-4h-.2a11.84,11.84,0,0,1-9.71,4.72c-6.44,0-9.72-4.52-9.72-9.12,0-7.68,6.83-11.88,19.1-11.81v-.66c0-2.63-.72-7.35-7.22-7.35a15.87,15.87,0,0,0-8.27,2.36l-1.31-3.81a19.76,19.76,0,0,1,10.44-2.82c9.71,0,12.07,6.63,12.07,13v11.88a44,44,0,0,0,.53,7.61Zm-.85-16.21c-6.3-.13-13.45,1-13.45,7.15a5.11,5.11,0,0,0,5.45,5.52,7.91,7.91,0,0,0,7.68-5.32,6.19,6.19,0,0,0,.32-1.84Z"/><path class="cls-2" d="M1444.26,593.66H1450v46.6h-5.78Z"/><path class="cls-2" d="M1479.32,599.57a3.58,3.58,0,0,1-7.15,0,3.51,3.51,0,0,1,3.61-3.61A3.43,3.43,0,0,1,1479.32,599.57Zm-6.43,40.69V608.5h5.77v31.76Z"/><path class="cls-2" d="M1528.75,593.66v38.4c0,2.82.07,6,.26,8.2h-5.18l-.26-5.51h-.14A11.75,11.75,0,0,1,1512.6,641c-7.68,0-13.58-6.49-13.58-16.14-.07-10.57,6.5-17.07,14.24-17.07,4.86,0,8.14,2.3,9.58,4.86h.13v-19ZM1523,621.43a10,10,0,0,0-.26-2.43,8.49,8.49,0,0,0-8.34-6.7c-6,0-9.51,5.25-9.51,12.27,0,6.44,3.15,11.75,9.38,11.75a8.68,8.68,0,0,0,8.47-6.89,9.86,9.86,0,0,0,.26-2.49Z"/><path class="cls-2" d="M1569.06,640.26l-.46-4h-.2a11.83,11.83,0,0,1-9.71,4.72c-6.43,0-9.71-4.52-9.71-9.12,0-7.68,6.82-11.88,19.1-11.81v-.66c0-2.63-.72-7.35-7.22-7.35a15.84,15.84,0,0,0-8.27,2.36l-1.32-3.81a19.81,19.81,0,0,1,10.44-2.82c9.72,0,12.08,6.63,12.08,13v11.88a45,45,0,0,0,.52,7.61Zm-.85-16.21c-6.3-.13-13.46,1-13.46,7.15a5.12,5.12,0,0,0,5.45,5.52,7.9,7.9,0,0,0,7.68-5.32,5.9,5.9,0,0,0,.33-1.84Z"/><path class="cls-2" d="M1623.62,593.66v38.4c0,2.82.06,6,.26,8.2h-5.19l-.26-5.51h-.13a11.75,11.75,0,0,1-10.83,6.23c-7.68,0-13.59-6.49-13.59-16.14-.06-10.57,6.5-17.07,14.25-17.07,4.85,0,8.13,2.3,9.58,4.86h.13v-19Zm-5.78,27.77a10,10,0,0,0-.26-2.43,8.5,8.5,0,0,0-8.34-6.7c-6,0-9.51,5.25-9.51,12.27,0,6.44,3.15,11.75,9.38,11.75a8.69,8.69,0,0,0,8.47-6.89,9.86,9.86,0,0,0,.26-2.49Z"/></g><g id="NACIONAL"><path class="cls-1" d="M811.33,346.26c0-17.09,8.29-24.12,25.88-24.12,8.54,0,16.08,3.27,20.6,10.8l72.11,116.33h.5V342c0-13.32,7.53-19.85,19.85-19.85s19.84,6.53,19.84,19.85v142c0,16.33-7,25.62-24.37,25.62-13.06,0-17.33-2.76-22.6-11.05L851.53,385.45H851V489.72c0,13.31-7.54,19.84-19.85,19.84s-19.85-6.53-19.85-19.84Z"/><path class="cls-1" d="M1109,470.88c0,15.32,3.77,18.84,3.77,24.62,0,8.29-7.79,14.06-16.58,14.06-15.83,0-21.11-10-21.61-21.35-14.32,15.83-30.9,21.35-50.24,21.35-20.86,0-41.46-14.32-41.46-37.43,0-30.4,23.12-38.94,51.25-42.21l22.37-2.51c8.79-1,15.82-3,15.82-13.57s-10.8-15.07-23.11-15.07c-27.14,0-27.89,20.1-42.46,20.1-9.3,0-15.58-6.53-15.58-14.07,0-14.57,20.6-33.16,58.29-33.16,35.17,0,59.54,11.3,59.54,37.68Zm-36.68-26.39c-4,3.77-11.56,5-15.82,5.78l-13.32,2c-15.33,2.25-23.62,7-23.62,18.08,0,8.29,7.79,15.07,20.35,15.07,20.1,0,32.41-13.06,32.41-26.63Z"/><path class="cls-1" d="M1186.65,371.64c30.65,0,53.51,17.33,53.51,34.41,0,10.56-7.79,15.83-17.08,15.83-17.34,0-11-21.6-37.44-21.6-14.31,0-31.15,9.79-31.15,43,0,22.86,10.8,37.68,30.9,37.68,25.63,0,20.1-23.62,39.45-23.62,9.29,0,15.32,6.79,15.32,14.08,0,16.08-18.09,38.18-55.77,38.18-45.22,0-66.58-27.88-66.58-66.32,0-42.21,23.86-71.6,68.84-71.6"/><path class="cls-1" d="M1264.27,321.14a19.1,19.1,0,1,1-19.09,19.09,19.08,19.08,0,0,1,19.09-19.09M1245.93,390c0-9.79,4-18.33,18.34-18.33s18.34,8.54,18.34,18.33V491.22c0,9.8-4,18.34-18.34,18.34s-18.34-8.54-18.34-18.34Z"/><path class="cls-1" d="M1360.23,371.64c44.22,0,67.84,30.14,67.84,68.83,0,36.68-17.84,69.09-67.84,69.09s-67.83-32.41-67.83-69.09c0-38.69,23.62-68.83,67.83-68.83m0,110.79c21.86,0,31.16-19.6,31.16-42,0-23.86-9.8-41.7-31.16-41.7s-31.15,17.84-31.15,41.7c0,22.36,9.29,42,31.15,42"/><path class="cls-1" d="M1435.85,390c0-11.05,5-18.33,16.58-18.33S1469,378.92,1469,390v4.78h.5c10.3-13.57,23.62-23.11,44.47-23.11,22.11,0,46.23,11.05,46.23,48.23v71.35c0,9.8-4,18.34-18.34,18.34s-18.34-8.54-18.34-18.34V427.16c0-14.83-7.29-25.37-23.12-25.37a28.47,28.47,0,0,0-27.88,28.89v60.54c0,9.8-4,18.34-18.34,18.34s-18.34-8.54-18.34-18.34Z"/><path class="cls-1" d="M1695.36,470.88c0,15.32,3.76,18.84,3.76,24.62,0,8.29-7.78,14.06-16.57,14.06-15.83,0-21.11-10-21.61-21.35-14.32,15.83-30.9,21.35-50.25,21.35-20.85,0-41.45-14.32-41.45-37.43,0-30.4,23.11-38.94,51.25-42.21l22.36-2.51c8.79-1,15.83-3,15.83-13.57s-10.81-15.07-23.12-15.07c-27.13,0-27.88,20.1-42.46,20.1-9.29,0-15.57-6.53-15.57-14.07,0-14.57,20.6-33.16,58.28-33.16,35.18,0,59.55,11.3,59.55,37.68Zm-36.68-26.39c-4,3.77-11.56,5-15.83,5.78l-13.32,2c-15.32,2.25-23.61,7-23.61,18.08,0,8.29,7.78,15.07,20.35,15.07,20.1,0,32.41-13.06,32.41-26.63Z"/><path class="cls-1" d="M1713.18,340.48c0-12.06,7.29-18.34,18.34-18.34s18.34,6.28,18.34,18.34V491.22c0,12.06-7.28,18.34-18.34,18.34s-18.34-6.28-18.34-18.34Z"/></g><g id="LOTERIA"><path class="cls-1" d="M812.08,107.21c0-12.31,8-20.61,20.61-20.61s20.6,8.3,20.6,20.61V236.09h68.84c11.81,0,21.35,6,21.35,17.33s-9.54,17.34-21.35,17.34H836.2c-14.57,0-24.12-5.77-24.12-24.12Z"/><path class="cls-1" d="M1007.54,136.1c44.21,0,67.83,30.15,67.83,68.84,0,36.68-17.84,69.09-67.83,69.09s-67.84-32.41-67.84-69.09c0-38.69,23.62-68.84,67.84-68.84m0,110.79c21.85,0,31.15-19.59,31.15-41.95,0-23.87-9.8-41.71-31.15-41.71s-31.16,17.84-31.16,41.71c0,22.36,9.3,41.95,31.16,41.95"/><path class="cls-1" d="M1092.69,163.48h-6.28c-10.3,0-14.58-4-14.58-12s4.28-12.07,14.58-12.07h6.28V117c0-12,7.29-18.33,18.34-18.33s18.34,6.28,18.34,18.33v22.36h11.06c10.8,0,16.58,3.27,16.58,12.07s-5.78,12-16.58,12h-11.06v73.37c0,5.52,3,8.54,9.54,8.54h5.28c8,0,12.82,4.52,12.82,12.31,0,10.55-9,16.33-26.63,16.33-26.64,0-37.69-11.06-37.69-32.66Z"/><path class="cls-1" d="M1191.42,212c0,19.35,12.56,33.42,33.92,33.42,27.63,0,27.63-18.09,42.46-18.09,8.79,0,15.07,7.53,15.07,14.32,0,22.11-35.42,32.41-57.53,32.41-51.25,0-70.6-34.67-70.6-66.58,0-42.71,25.88-71.35,69.34-71.35,42.21,0,66.33,29.9,66.33,60.05,0,12.56-3.77,15.82-16.08,15.82Zm64.31-21.1c-2-16.83-14.56-29.14-30.89-29.14-18.35,0-29.4,11.3-33.42,29.14Z"/><path class="cls-1" d="M1300.19,153.18c0-11.05,7.29-17.08,16.58-17.08s16.59,6,16.59,17.08v14.07h.5c4.27-15.32,12.56-31.15,30.39-31.15,11.56,0,20.11,7.54,20.11,17.84,0,13.56-9,18.33-18.09,18.33h-6.53c-14.83,0-22.87,10.31-22.87,40.71v42.71c0,9.8-4,18.34-18.34,18.34s-18.34-8.54-18.34-18.34Z"/><path class="cls-1" d="M1409.47,88.11c5-4,10.8-8.54,16.83-8.54,10,0,13.57,8.79,13.57,13.82,0,4.77-3.27,9.54-9.3,13.57L1408,122.28c-6.28,4.27-9,4.52-11.56,4.52-5.77,0-12.81-3.77-12.81-12.31,0-4.52,1.76-7.53,7.29-12.06Zm-22.86,66.33c0-9.8,4-18.34,18.34-18.34s18.34,8.54,18.34,18.34V255.69c0,9.8-4,18.34-18.34,18.34s-18.34-8.54-18.34-18.34Z"/><path class="cls-1" d="M1560.46,235.34c0,15.32,3.77,18.84,3.77,24.62,0,8.29-7.79,14.07-16.58,14.07-15.83,0-21.11-10-21.61-21.36-14.32,15.83-30.9,21.36-50.25,21.36-20.85,0-41.45-14.32-41.45-37.44,0-30.4,23.11-38.94,51.25-42.2l22.36-2.52c8.8-1,15.83-3,15.83-13.56s-10.81-15.08-23.12-15.08c-27.13,0-27.88,20.1-42.45,20.1-9.3,0-15.58-6.53-15.58-14.07,0-14.57,20.6-33.16,58.29-33.16,35.17,0,59.54,11.31,59.54,37.69ZM1523.78,209c-4,3.77-11.56,5-15.83,5.78l-13.31,2c-15.33,2.26-23.62,7-23.62,18.08,0,8.3,7.79,15.08,20.35,15.08,20.1,0,32.41-13.06,32.41-26.63Z"/></g><g id="LINEA_1" data-name="LINEA 1"><path class="cls-1" d="M416.61,9.07C301.78-15.12,199.1,10.74,187.28,66.83S259,188,373.82,212.2s217.51-1.67,229.33-57.76S531.45,33.26,416.61,9.07m-25.28,120C329,115.92,283.87,79.29,290.62,47.24S353.41-.15,415.79,13,523.25,62.77,516.5,94.82s-62.8,47.39-125.17,34.24"/></g><g id="LINEA_2" data-name="LINEA 2"><path class="cls-1" d="M664.27,215.84l0,.16c-16.84,79.92-155.53,118.36-309.78,85.86S88.81,178.24,105.64,98.33c0-.06,0-.11,0-.17-36.57,18.39-60.89,44.05-67.54,75.63-19,90.1,112.8,194.13,294.34,232.38s344.1-3.79,363.08-93.88c6.65-31.58-5.24-64.88-31.29-96.45"/></g><g id="LINEA_3" data-name="LINEA 3"><path class="cls-3" d="M315.67,497.44C170,466.76,55.26,394.63,18.89,319.28a6.18,6.18,0,0,0-11.28.23,95,95,0,0,0-5.56,17.67c-20.26,96.15,112.24,205.48,296,244.18s349-7.88,369.3-104a94.71,94.71,0,0,0,2-18.41,6.19,6.19,0,0,0-10.23-4.77c-63.67,54.28-197.8,74-343.44,43.29"/></g><g id="LINEA_4" data-name="LINEA 4"><g id="LINEA_4-2" data-name="LINEA 4"><path class="cls-1" d="M279.79,655.44c-71.79-15.12-133.71-39.59-173-65.83-6.14-4.1-13.06,4.11-7.89,9.39,36.13,36.93,99.32,69.21,174.83,85.11S420.1,696,468.05,676.77c6.87-2.75,3.85-13.06-3.43-11.78-46.51,8.17-113,5.57-184.83-9.55"/></g></g></svg>